<svg width="686" height="481" viewBox="0 0 686 481" fill="none" xmlns="http://www.w3.org/2000/svg">
<path d="M47.6544 242.325C-36.0162 313.786 7.5744 410.205 49.1995 461.976C57.6709 472.513 70.784 477.825 84.3036 477.825H532.154C657.154 477.825 777.302 52.0663 585.654 35.825C320.154 13.325 397.154 205.825 320.154 230.825C218.401 263.862 164.154 142.825 47.6544 242.325Z" fill="#FF5670" fill-opacity="0.5"/>
<g clip-path="url(#clip0_1_1256)">
<path d="M387.881 361.677H305.902C301.122 361.677 297.253 357.814 297.253 353.04C297.253 348.275 301.122 344.403 305.902 344.403H387.881C392.652 344.403 396.53 348.266 396.53 353.04C396.53 357.804 392.661 361.677 387.881 361.677Z" fill="#C56E81"/>
<path d="M444.28 361.677H347.536C340.941 361.677 336.197 355.229 338.058 348.8L384.252 189.779C385.495 185.511 389.345 182.586 393.73 182.586H490.474C497.069 182.586 501.812 189.034 499.952 195.463L453.758 354.484C452.515 358.752 448.665 361.677 444.28 361.677Z" fill="#C56E81"/>
<path d="M430.97 361.677H346.707C340.112 361.677 335.368 355.229 337.229 348.8L383.423 189.779C384.666 185.511 388.516 182.586 392.901 182.586H477.164C483.759 182.586 488.503 189.034 486.642 195.463L440.448 354.484C439.205 358.752 435.355 361.677 430.97 361.677Z" fill="white"/>
<path d="M444.253 361.677H341.862C337.091 361.677 333.213 357.814 333.213 353.04C333.213 348.275 337.082 344.403 341.862 344.403H444.253C449.024 344.403 452.902 348.266 452.902 353.04C452.902 357.804 449.033 361.677 444.253 361.677Z" fill="#C56E81"/>
<path d="M321.819 175.044C321.819 175.044 298.966 206.417 282.783 243.531C280.968 247.688 281.355 252.535 283.851 256.316C289.479 264.86 304.18 262.892 309.845 254.945C309.845 254.945 353.1 195.132 351.258 192.713C350.816 192.133 321.81 175.044 321.81 175.044H321.819Z" fill="#EAC8CE"/>
<path d="M295.024 232.659L238.348 209.894L233.439 239.52L290.501 261.19C292.565 261.972 294.812 262.202 296.968 261.724C304.336 260.087 309.568 252.82 308.214 244.864C307.091 238.251 301.665 233.238 295.024 232.668V232.659Z" fill="#EAC8CE"/>
<path d="M366.014 167.768L326.784 172.799C322.786 173.315 319.922 176.911 320.318 180.912L345.666 290.734L429.874 290.522L417.955 181.28C418.452 177.178 415.496 173.452 411.378 172.993L366.014 167.759V167.768Z" fill="#EAC8CE"/>
<path d="M331.426 226.579C331.426 225.273 324.389 198.563 324.389 198.563" stroke="#D5B2BA" stroke-width="2.46" stroke-miterlimit="10"/>
<path d="M351.138 277.507H283.271V269.864H351.138C353.256 269.864 354.97 271.575 354.97 273.69C354.97 275.797 353.256 277.517 351.138 277.517V277.507Z" fill="#061418"/>
<path d="M292.205 277.507H194.771C189.594 277.507 185.044 274.058 183.653 269.073L166.115 206.16C164.568 200.595 168.749 195.095 174.534 195.095H264.637C268.091 195.095 271.121 197.422 271.996 200.761L292.196 277.498L292.205 277.507Z" fill="#1C2E34"/>
<path d="M233.697 239.824C233.697 244.515 229.883 248.323 225.186 248.323C220.488 248.323 216.675 244.515 216.675 239.824C216.675 235.133 220.488 231.325 225.186 231.325C229.883 231.325 233.697 235.133 233.697 239.824Z" fill="white"/>
<path d="M384.445 194.175C384.445 194.175 405.833 236.458 429.966 270.535C432.674 274.353 439.057 276.257 443.746 276.054C454.311 275.603 458.788 264.235 454.799 254.982C454.799 254.982 420.976 176.938 416.297 175.669C415.578 175.476 384.445 194.175 384.445 194.175Z" fill="#EAC8CE"/>
<path d="M360.008 260.915L378.393 259.498L377.822 277.875L361.906 277.866L360.008 260.915Z" fill="#C35F54"/>
<path d="M361.371 260.915C361.371 260.915 319.212 244.69 323.901 277.839H364.365L361.371 260.915Z" fill="#C35F54"/>
<path d="M439.196 247.596L373.097 249.583L374.387 279.126L443.064 277.682C452.846 276.376 458.797 266.24 455.177 257.079C452.635 250.65 446.067 246.75 439.205 247.596H439.196Z" fill="#EAC8CE"/>
<path d="M397.184 210.483L414.676 248.341L373.097 249.583L373.06 259.498" stroke="#D5B2BA" stroke-width="2.46" stroke-miterlimit="10"/>
<path d="M414.676 248.341L423.905 252.857" stroke="#D5B2BA" stroke-width="2.46" stroke-miterlimit="10"/>
<path d="M338.915 123.692C339.633 128.383 336.52 132.752 331.979 133.47C327.438 134.178 323.173 130.959 322.455 126.268C321.736 121.577 324.849 117.208 329.39 116.49C333.932 115.782 338.196 119.001 338.915 123.692Z" fill="#0B181B"/>
<path d="M350.622 146.558L352.575 169.543C353.247 177.619 358.424 181.51 366.124 180.783C372.692 180.158 379.646 176.359 378.762 169.277L374 133.258L350.622 146.567V146.558Z" fill="#C35F54"/>
<path d="M356.121 153.806C342.977 154.946 331.233 145.188 329.906 134.15L327.263 111.054C325.605 97.221 334.88 84.5923 348.227 82.5044C361.887 80.3705 377.104 89.6879 379.25 103.779L381.092 121.807C382.769 138.032 371.743 151.369 356.121 153.815V153.806Z" fill="#C35F54"/>
<path d="M342.894 125.559L342.811 130.71L346.072 130.563" stroke="#312220" stroke-width="1.68" stroke-linecap="round" stroke-linejoin="round"/>
<path d="M356.112 111.625C356.112 111.625 350.686 111.625 350.825 113.887C350.825 113.887 350.954 115.414 355.679 115.331C360.404 115.239 361.592 114.789 361.906 113.308C362.209 111.836 358.636 111.432 356.112 111.625Z" fill="#0B181B"/>
<path d="M334.014 112.848C334.014 112.848 338.417 112.002 338.961 114.099C338.961 114.099 339.292 115.515 335.433 116.168C331.573 116.822 330.256 116.417 329.796 115.285C329.271 114.007 331.905 113.06 334.024 112.848H334.014Z" fill="#0B181B"/>
<path d="M351.497 121.807C351.497 121.807 354.997 119.103 358.479 121.816" stroke="#312220" stroke-width="1.68" stroke-linecap="round" stroke-linejoin="round"/>
<path d="M338.39 122.956C338.39 122.956 335.93 120.399 332.485 123.49" stroke="#312220" stroke-width="1.68" stroke-linecap="round" stroke-linejoin="round"/>
<path d="M365.977 92.3185C365.977 92.3185 359.796 100.238 372.093 109.85C372.093 109.85 370.002 129.698 367.322 134.757C367.322 134.757 342.415 129.671 330.735 137.793C330.735 137.793 331.141 155.13 351.608 155.958C378.835 157.062 381.7 129.423 381.7 129.423L376.017 116.067L385.311 117.327C385.311 117.327 404.194 88.8509 374.755 88.8509L365.977 92.3185Z" fill="#0B181B"/>
<path d="M391.123 119.645C391.842 124.336 388.728 128.705 384.187 129.423C379.646 130.131 375.381 126.912 374.663 122.221C373.944 117.53 377.058 113.161 381.599 112.443C386.14 111.735 390.405 114.954 391.123 119.645Z" fill="#C35F54"/>
<path d="M380.401 123.407C380.401 123.407 379.462 117.254 385.32 117.327" stroke="#312220" stroke-width="1.51" stroke-linecap="round" stroke-linejoin="round"/>
<path d="M367.193 93.5418C367.193 93.5418 344.441 94.9307 330.689 93.827C330.689 93.827 317.121 88.7498 322.749 80.5269C327.198 74.0241 337.966 79.3312 337.966 79.3312C337.966 79.3312 337.782 72.6352 342.516 70.8048C348.181 68.6157 364.733 66.8498 378.835 89.274L367.193 93.5326V93.5418Z" fill="#0B181B"/>
<path d="M352.344 169.525L345.077 170.454C345.077 170.454 341.835 182.577 358.691 183.8C376.266 185.069 383.192 178.576 386.582 169.911L367.239 166.122L352.344 169.525Z" fill="#C35F54"/>
<path d="M283.88 457.552L308.676 457.448L308.535 423.969L283.739 424.072L283.88 457.552Z" fill="#C35F54"/>
<path d="M364.945 290.532L366.686 301.201C370.407 323.993 352.796 344.688 329.667 344.688H318.586V438.837L272.577 439.453L270.007 324.113C269.666 305.772 284.441 290.706 302.807 290.669L364.945 290.532Z" fill="#0086FF"/>
<path d="M308.85 452.698C303.01 454.253 289.654 458.364 283.455 449.405L241.572 472.069L315.5 471.581L312.212 454.924C311.972 453.324 310.406 452.294 308.85 452.707V452.698Z" fill="#0B181B"/>
<path d="M241.585 478.469L315.521 477.979L315.478 471.577L241.542 472.067L241.585 478.469Z" fill="#E5E5E5"/>
<path d="M283.888 459.302C283.704 459.22 283.538 459.091 283.4 458.916C280.692 455.191 277.965 453.351 277.937 453.333C277.403 452.974 277.256 452.248 277.615 451.714C277.974 451.181 278.702 451.043 279.236 451.392C279.365 451.475 282.313 453.462 285.297 457.546C285.675 458.07 285.564 458.796 285.039 459.174C284.689 459.422 284.256 459.459 283.888 459.302Z" fill="white"/>
<path d="M278.195 462.292C278.011 462.209 277.836 462.08 277.707 461.905C274.999 458.18 272.273 456.341 272.245 456.322C271.711 455.963 271.563 455.237 271.923 454.703C272.282 454.17 273.019 454.032 273.544 454.381C273.673 454.464 276.62 456.451 279.605 460.535C279.982 461.059 279.872 461.786 279.347 462.163C278.997 462.411 278.564 462.448 278.195 462.292Z" fill="white"/>
<path d="M272.503 465.29C272.319 465.207 272.144 465.079 272.015 464.904C269.307 461.179 266.58 459.339 266.553 459.321C266.018 458.962 265.871 458.235 266.23 457.702C266.589 457.168 267.326 457.03 267.851 457.38C267.98 457.463 270.928 459.449 273.912 463.533C274.29 464.058 274.179 464.784 273.654 465.161C273.304 465.41 272.871 465.446 272.503 465.29Z" fill="white"/>
<path d="M348.8 457.548L373.596 457.444L373.456 423.964L348.66 424.068L348.8 457.548Z" fill="#C35F54"/>
<path d="M373.383 451.291C367.543 452.845 354.343 457.932 348.144 448.964L306.261 471.627L380.19 471.14L376.745 453.508C376.505 451.907 374.939 450.877 373.383 451.291Z" fill="#0B181B"/>
<path d="M306.269 478.042L380.205 477.552L380.162 471.151L306.227 471.64L306.269 478.042Z" fill="#E5E5E5"/>
<path d="M348.577 458.87C348.393 458.787 348.218 458.658 348.089 458.484C345.381 454.759 342.654 452.919 342.627 452.901C342.093 452.542 341.945 451.815 342.304 451.282C342.664 450.748 343.391 450.61 343.926 450.96C344.055 451.043 347.002 453.029 349.986 457.113C350.364 457.638 350.254 458.364 349.729 458.75C349.379 458.999 348.946 459.036 348.577 458.879V458.87Z" fill="white"/>
<path d="M342.885 461.859C342.701 461.777 342.535 461.648 342.397 461.473C339.689 457.748 336.962 455.908 336.934 455.89C336.4 455.531 336.253 454.805 336.612 454.271C336.971 453.738 337.708 453.6 338.233 453.949C338.362 454.032 341.31 456.019 344.294 460.103C344.672 460.627 344.561 461.353 344.036 461.731C343.686 461.979 343.253 462.016 342.885 461.859Z" fill="white"/>
<path d="M337.192 464.858C337.008 464.775 336.833 464.646 336.704 464.472C333.996 460.746 331.27 458.907 331.242 458.888C330.708 458.53 330.56 457.803 330.92 457.27C331.279 456.736 332.016 456.598 332.541 456.948C332.67 457.03 335.617 459.017 338.602 463.101C338.979 463.625 338.869 464.352 338.344 464.738C337.994 464.987 337.561 465.023 337.192 464.867V464.858Z" fill="white"/>
<path d="M429.874 290.532L431.615 301.201C435.336 323.993 417.725 344.688 394.596 344.688H383.515V438.837L337.505 439.453L334.936 324.113C334.595 305.772 349.369 290.706 367.736 290.669L429.874 290.532Z" fill="#0086FF"/>
<path d="M334.493 344.412V322.411C334.493 304.42 348.982 289.832 366.87 289.805L375.068 289.786" stroke="#55382C" stroke-width="2.46" stroke-miterlimit="10"/>
<path d="M228.603 480.512L162.596 284.654L109.467 478.13" stroke="#55382E" stroke-width="3.34" stroke-miterlimit="10"/>
<path d="M506.096 480.512L440.089 284.654L386.969 478.13" stroke="#55382E" stroke-width="3.34" stroke-miterlimit="10"/>
<path d="M535 277.535H66V290.807H535V277.535Z" fill="#E5E5E5"/>
<path d="M276.915 93.505C281.502 98.619 258.152 90.5249 249.927 84.6935C244.768 86.5423 239.251 87.5448 233.641 87.5448C207.123 87.5448 190.174 64.4307 190.174 40.2313C190.174 16.0318 210.125 0.745026 236.405 0.745026C267.096 0.745026 280.286 12.4538 280.286 44.5634C280.286 56.7138 274.64 67.4844 265.954 75.2198C268.542 80.3889 273.369 89.5408 276.915 93.505Z" fill="#F9E1E6"/>
<path d="M275.672 94.0201C275.81 94.1765 276.16 94.8019 276.16 94.8019C276.178 94.8019 276.104 94.8203 276.16 94.8019C276.215 94.7927 276.473 94.526 276.556 94.48C276.666 94.4156 277.228 94.4156 276.758 94.3697C277.062 94.3972 276.454 94.3512 276.335 94.3421C276.16 94.3329 275.865 94.2869 275.598 94.2409C274.87 94.1213 274.161 93.9649 273.442 93.781C269.436 92.7692 265.53 91.2792 261.735 89.6604C259.672 88.7774 257.627 87.8392 255.637 86.7998C254.762 86.3492 253.906 85.8709 253.058 85.3742C252.368 84.9603 251.612 84.2612 250.866 83.9945C250.175 83.7554 249.42 84.1325 248.775 84.344C247.9 84.6384 247.016 84.9051 246.122 85.1534C244.391 85.6225 242.641 85.9996 240.872 86.2664C237.602 86.7539 234.286 86.901 230.979 86.6619C220.635 85.926 211.047 81.0604 204.092 73.4262C197.23 65.8932 193.076 56.1067 191.878 46.0259C190.681 35.9451 192.431 26.3426 198.234 18.2853C203.853 10.4855 212.493 5.50031 221.713 3.17326C226.917 1.85798 232.26 1.41648 237.611 1.49926C242.291 1.57284 246.979 1.92236 251.566 2.85134C258.824 4.33219 265.779 7.44105 270.578 13.2449C275.745 19.481 277.744 27.6947 278.527 35.5864C279.08 41.1787 279.301 46.9641 278.168 52.492C276.97 58.3234 274.41 63.7961 270.836 68.5514C269.076 70.8968 267.068 73.0307 264.885 74.9806C264.775 75.0818 264.526 75.367 264.618 75.5601C266.267 78.8529 267.989 82.1182 269.832 85.3098C271.573 88.3175 273.369 91.3988 275.681 94.0109C276.289 94.7008 278.84 93.7442 278.159 92.9716C275.856 90.3686 274.05 87.2965 272.328 84.298C270.605 81.2995 268.892 78.0435 267.289 74.8519L267.022 75.4313C274.916 68.3582 280.443 58.7097 281.447 48.0678C281.889 43.4321 281.613 38.6401 281.106 34.0228C280.673 30.1321 279.936 26.2598 278.674 22.5531C276.602 16.4549 272.982 10.9914 267.667 7.26629C261.864 3.20086 254.808 1.37969 247.854 0.579479C230.399 -1.43484 210.678 1.39808 198.326 15.0752C185.974 28.7524 186.573 48.4909 194.356 63.8789C198.372 71.8258 204.525 78.6506 212.336 83.0195C221.179 87.968 231.643 89.2925 241.563 87.5817C244.593 87.0574 247.559 86.2572 250.461 85.2362L248.692 85.2086C253.261 88.4187 258.567 90.6629 263.771 92.6313C266.285 93.5786 268.837 94.4616 271.434 95.1423C273.092 95.5746 274.944 96.0804 276.676 95.8229C277.412 95.7125 278.573 95.3722 278.822 94.5536C279.006 93.965 278.527 93.3947 278.168 92.9808C277.56 92.2909 275.008 93.2475 275.69 94.0201H275.672Z" fill="#D5B2BA"/>
<path d="M212.824 49.8614L222.754 59.7766C224.237 61.2575 226.641 61.2667 228.142 59.795L259.773 28.7432L226.77 55.6652C225.959 56.3274 224.836 56.4286 223.924 55.9227L212.824 49.8522V49.8614Z" fill="#00CC09"/>
</g>
<defs>
<clipPath id="clip0_1_1256">
<rect width="469" height="481" fill="white" transform="translate(66)"/>
</clipPath>
</defs>
</svg>
