<svg width="469" height="412" viewBox="0 0 469 412" fill="none" xmlns="http://www.w3.org/2000/svg">
<path d="M321.881 292.09H239.902C235.122 292.09 231.253 288.227 231.253 283.453C231.253 278.689 235.122 274.817 239.902 274.817H321.881C326.652 274.817 330.53 278.68 330.53 283.453C330.53 288.218 326.661 292.09 321.881 292.09Z" fill="#C56E81"/>
<path d="M378.28 292.09H281.536C274.941 292.09 270.197 285.643 272.058 279.213L318.251 120.192C319.495 115.924 323.345 112.999 327.73 112.999H424.474C431.069 112.999 435.812 119.447 433.952 125.876L387.758 284.898C386.515 289.165 382.664 292.09 378.28 292.09Z" fill="#C56E81"/>
<path d="M364.97 292.09H280.707C274.112 292.09 269.368 285.643 271.229 279.213L317.422 120.192C318.666 115.924 322.516 112.999 326.901 112.999H411.163C417.759 112.999 422.502 119.447 420.642 125.876L374.448 284.898C373.205 289.165 369.354 292.09 364.97 292.09Z" fill="white"/>
<path d="M378.252 292.09H275.862C271.091 292.09 267.213 288.227 267.213 283.453C267.213 278.689 271.082 274.817 275.862 274.817H378.252C383.024 274.817 386.902 278.68 386.902 283.453C386.902 288.218 383.033 292.09 378.252 292.09Z" fill="#C56E81"/>
<path d="M255.819 105.457C255.819 105.457 232.966 136.831 216.782 173.944C214.968 178.102 215.354 182.949 217.851 186.729C223.479 195.274 238.179 193.306 243.844 185.359C243.844 185.359 287.099 125.545 285.257 123.126C284.815 122.547 255.809 105.457 255.809 105.457H255.819Z" fill="#EAC8CE"/>
<path d="M229.024 163.072L172.348 140.308L167.438 169.934L224.501 191.604C226.564 192.386 228.812 192.616 230.967 192.138C238.336 190.5 243.568 183.234 242.214 175.278C241.09 168.665 235.665 163.652 229.024 163.082V163.072Z" fill="#EAC8CE"/>
<path d="M300.013 98.1818L260.783 103.213C256.786 103.728 253.921 107.324 254.317 111.326L279.666 221.147L363.874 220.936L351.955 111.693C352.452 107.591 349.495 103.866 345.378 103.406L300.013 98.1726V98.1818Z" fill="#EAC8CE"/>
<path d="M265.426 156.993C265.426 155.687 258.389 128.976 258.389 128.976" stroke="#D5B2BA" stroke-width="2.46" stroke-miterlimit="10"/>
<path d="M285.138 207.921H217.271V200.278H285.138C287.256 200.278 288.969 201.988 288.969 204.104C288.969 206.21 287.256 207.93 285.138 207.93V207.921Z" fill="#061418"/>
<path d="M226.205 207.921H128.771C123.594 207.921 119.044 204.472 117.653 199.487L100.115 136.574C98.5675 131.009 102.749 125.509 108.534 125.509H198.637C202.091 125.509 205.121 127.836 205.996 131.174L226.196 207.912L226.205 207.921Z" fill="#1C2E34"/>
<path d="M167.696 170.238C167.696 174.928 163.883 178.736 159.185 178.736C154.488 178.736 150.674 174.928 150.674 170.238C150.674 165.547 154.488 161.739 159.185 161.739C163.883 161.739 167.696 165.547 167.696 170.238Z" fill="white"/>
<path d="M318.445 124.589C318.445 124.589 339.833 166.871 363.966 200.949C366.674 204.766 373.057 206.67 377.746 206.468C388.311 206.017 392.787 194.649 388.799 185.396C388.799 185.396 354.976 107.352 350.297 106.083C349.578 105.89 318.445 124.589 318.445 124.589Z" fill="#EAC8CE"/>
<path d="M294.008 191.328L312.393 189.912L311.822 208.289L295.905 208.28L294.008 191.328Z" fill="#C35F54"/>
<path d="M295.371 191.328C295.371 191.328 253.212 175.103 257.901 208.252H298.365L295.371 191.328Z" fill="#C35F54"/>
<path d="M373.195 178.01L307.097 179.996L308.386 209.54L377.064 208.096C386.846 206.79 392.796 196.654 389.177 187.493C386.634 181.063 380.067 177.163 373.205 178.01H373.195Z" fill="#EAC8CE"/>
<path d="M331.184 140.896L348.676 178.755L307.097 179.996L307.06 189.912" stroke="#D5B2BA" stroke-width="2.46" stroke-miterlimit="10"/>
<path d="M348.676 178.755L357.905 183.271" stroke="#D5B2BA" stroke-width="2.46" stroke-miterlimit="10"/>
<path d="M272.915 54.1059C273.633 58.7967 270.52 63.1657 265.979 63.8831C261.438 64.5914 257.173 61.3721 256.455 56.6813C255.736 51.9904 258.85 47.6214 263.391 46.904C267.932 46.1957 272.196 49.415 272.915 54.1059Z" fill="#0B181B"/>
<path d="M284.622 76.9716L286.575 99.957C287.247 108.033 292.424 111.923 300.124 111.197C306.692 110.571 313.646 106.773 312.762 99.6903L308 63.6716L284.622 76.9808V76.9716Z" fill="#C35F54"/>
<path d="M290.121 84.2195C276.977 85.3601 265.233 75.6012 263.907 64.5638L261.263 41.4681C259.605 27.6345 268.88 15.0059 282.227 12.918C295.887 10.7841 311.104 20.1015 313.25 34.1926L315.092 52.2203C316.769 68.4453 305.743 81.7821 290.121 84.2287V84.2195Z" fill="#C35F54"/>
<path d="M276.894 55.973L276.811 61.1238L280.072 60.9766" stroke="#312220" stroke-width="1.68" stroke-linecap="round" stroke-linejoin="round"/>
<path d="M290.112 42.0383C290.112 42.0383 284.686 42.0383 284.824 44.301C284.824 44.301 284.953 45.8278 289.679 45.745C294.404 45.6531 295.592 45.2024 295.905 43.7215C296.209 42.2499 292.635 41.8452 290.112 42.0383Z" fill="#0B181B"/>
<path d="M268.014 43.2616C268.014 43.2616 272.417 42.4154 272.961 44.5125C272.961 44.5125 273.292 45.929 269.433 46.5821C265.573 47.2351 264.256 46.8304 263.796 45.6991C263.271 44.4206 265.905 43.4732 268.024 43.2616H268.014Z" fill="#0B181B"/>
<path d="M285.497 52.2203C285.497 52.2203 288.997 49.5162 292.479 52.2295" stroke="#312220" stroke-width="1.68" stroke-linecap="round" stroke-linejoin="round"/>
<path d="M272.39 53.37C272.39 53.37 269.93 50.813 266.485 53.9035" stroke="#312220" stroke-width="1.68" stroke-linecap="round" stroke-linejoin="round"/>
<path d="M299.977 22.7321C299.977 22.7321 293.796 30.6514 306.093 40.2631C306.093 40.2631 304.002 60.112 301.322 65.1708C301.322 65.1708 276.415 60.0844 264.735 68.2061C264.735 68.2061 265.141 85.544 285.608 86.3718C312.836 87.4755 315.7 59.8361 315.7 59.8361L310.017 46.4809L319.311 47.741C319.311 47.741 338.194 19.2645 308.755 19.2645L299.977 22.7321Z" fill="#0B181B"/>
<path d="M325.123 50.0588C325.842 54.7497 322.728 59.1187 318.187 59.8361C313.646 60.5443 309.382 57.3251 308.663 52.6342C307.945 47.9433 311.058 43.5744 315.599 42.8569C320.14 42.1487 324.405 45.3679 325.123 50.0588Z" fill="#C35F54"/>
<path d="M314.402 53.8207C314.402 53.8207 313.462 47.6674 319.32 47.741" stroke="#312220" stroke-width="1.51" stroke-linecap="round" stroke-linejoin="round"/>
<path d="M301.193 23.9554C301.193 23.9554 278.441 25.3443 264.689 24.2406C264.689 24.2406 251.121 19.1634 256.749 10.9405C261.198 4.43765 271.966 9.74479 271.966 9.74479C271.966 9.74479 271.782 3.04878 276.516 1.21841C282.181 -0.970672 298.733 -2.73666 312.836 19.6876L301.193 23.9462V23.9554Z" fill="#0B181B"/>
<path d="M286.344 99.9386L279.077 100.868C279.077 100.868 275.835 112.99 292.691 114.214C310.266 115.483 317.192 108.989 320.582 100.325L301.239 96.5354L286.344 99.9386Z" fill="#C35F54"/>
<path d="M217.88 387.966L242.676 387.862L242.535 354.382L217.739 354.486L217.88 387.966Z" fill="#C35F54"/>
<path d="M298.945 220.945L300.686 231.615C304.407 254.407 286.796 275.102 263.667 275.102H252.586V369.251L206.577 369.867L204.007 254.526C203.666 236.186 218.441 221.12 236.807 221.083L298.945 220.945Z" fill="#0086FF"/>
<path d="M242.85 383.112C237.01 384.666 223.654 388.778 217.455 379.819L175.572 402.482L249.5 401.995L246.212 385.338C245.972 383.737 244.407 382.707 242.85 383.121V383.112Z" fill="#0B181B"/>
<path d="M175.585 408.882L249.521 408.393L249.478 401.991L175.542 402.481L175.585 408.882Z" fill="#E5E5E5"/>
<path d="M217.888 389.716C217.704 389.633 217.538 389.504 217.4 389.33C214.692 385.604 211.965 383.765 211.938 383.746C211.403 383.388 211.256 382.661 211.615 382.128C211.974 381.594 212.702 381.456 213.236 381.806C213.365 381.889 216.313 383.875 219.297 387.959C219.675 388.483 219.564 389.21 219.039 389.587C218.689 389.835 218.256 389.872 217.888 389.716Z" fill="white"/>
<path d="M212.196 392.705C212.011 392.622 211.836 392.494 211.707 392.319C208.999 388.594 206.273 386.754 206.245 386.736C205.711 386.377 205.564 385.65 205.923 385.117C206.282 384.583 207.019 384.446 207.544 384.795C207.673 384.878 210.62 386.865 213.605 390.948C213.983 391.473 213.872 392.199 213.347 392.576C212.997 392.825 212.564 392.862 212.196 392.705Z" fill="white"/>
<path d="M206.503 395.704C206.319 395.621 206.144 395.492 206.015 395.317C203.307 391.592 200.58 389.753 200.553 389.734C200.019 389.376 199.871 388.649 200.23 388.115C200.59 387.582 201.327 387.444 201.852 387.794C201.981 387.876 204.928 389.863 207.912 393.947C208.29 394.471 208.18 395.198 207.655 395.575C207.305 395.823 206.872 395.86 206.503 395.704Z" fill="white"/>
<path d="M282.8 387.961L307.596 387.858L307.456 354.378L282.66 354.482L282.8 387.961Z" fill="#C35F54"/>
<path d="M307.383 381.705C301.543 383.259 288.343 388.345 282.144 379.378L240.262 402.041L314.19 401.553L310.745 383.921C310.505 382.321 308.939 381.291 307.383 381.705Z" fill="#0B181B"/>
<path d="M240.269 408.455L314.205 407.966L314.163 401.564L240.227 402.054L240.269 408.455Z" fill="#E5E5E5"/>
<path d="M282.577 389.284C282.393 389.201 282.218 389.072 282.089 388.897C279.381 385.172 276.655 383.333 276.627 383.314C276.093 382.955 275.945 382.229 276.305 381.695C276.664 381.162 277.392 381.024 277.926 381.373C278.055 381.456 281.002 383.443 283.987 387.527C284.364 388.051 284.254 388.778 283.729 389.164C283.379 389.412 282.946 389.449 282.577 389.293V389.284Z" fill="white"/>
<path d="M276.885 392.273C276.701 392.19 276.535 392.061 276.397 391.887C273.689 388.161 270.962 386.322 270.935 386.303C270.4 385.945 270.253 385.218 270.612 384.685C270.972 384.151 271.708 384.013 272.233 384.363C272.362 384.446 275.31 386.432 278.294 390.516C278.672 391.04 278.561 391.767 278.036 392.144C277.686 392.392 277.253 392.429 276.885 392.273Z" fill="white"/>
<path d="M271.193 395.271C271.008 395.189 270.833 395.06 270.704 394.885C267.996 391.16 265.27 389.32 265.242 389.302C264.708 388.943 264.561 388.217 264.92 387.683C265.279 387.15 266.016 387.012 266.541 387.361C266.67 387.444 269.618 389.431 272.602 393.515C272.98 394.039 272.869 394.765 272.344 395.152C271.994 395.4 271.561 395.437 271.193 395.281V395.271Z" fill="white"/>
<path d="M363.874 220.945L365.615 231.615C369.337 254.407 351.725 275.102 328.596 275.102H317.515V369.251L271.506 369.867L268.936 254.526C268.595 236.186 283.37 221.12 301.737 221.083L363.874 220.945Z" fill="#0086FF"/>
<path d="M268.494 274.826V252.825C268.494 234.834 282.983 220.246 300.871 220.218L309.068 220.2" stroke="#55382C" stroke-width="2.46" stroke-miterlimit="10"/>
<path d="M162.603 410.926L96.5962 215.068L43.4668 408.544" stroke="#55382E" stroke-width="3.34" stroke-miterlimit="10"/>
<path d="M440.096 410.926L374.089 215.068L320.969 408.544" stroke="#55382E" stroke-width="3.34" stroke-miterlimit="10"/>
<path d="M469 207.949H0V221.221H469V207.949Z" fill="#E5E5E5"/>
</svg>
